HIERARCHY
ROOT pelvis
{
	OFFSET 0.000000 0.000000 0.742794
	CHANNELS 6 Xposition Yposition Zposition Xrotation Yrotation Zrotation
	JOINT spine
	{
		OFFSET 0.000000 0.000000 0.000000
		CHANNELS 6 Xposition Yposition Zposition Xrotation Yrotation Zrotation
		JOINT spine.001
		{
			OFFSET 0.000000 -0.014091 0.268866
			CHANNELS 3 Xrotation Yrotation Zrotation
			JOINT neck
			{
				OFFSET 0.000000 0.032811 0.267228
				CHANNELS 6 Xposition Yposition Zposition Xrotation Yrotation Zrotation
				JOINT face
				{
					OFFSET 0.000000 0.003472 0.198929
					CHANNELS 6 Xposition Yposition Zposition Xrotation Yrotation Zrotation
					End Site
					{
						OFFSET 0.000000 -0.020987 -0.007888
					}
				}
			}
			JOINT shoulder.L
			{
				OFFSET 0.000000 0.032811 0.267228
				CHANNELS 6 Xposition Yposition Zposition Yrotation Xrotation Zrotation
				JOINT upper_arm.L
				{
					OFFSET 0.165131 0.000000 0.000000
					CHANNELS 6 Xposition Yposition Zposition Xrotation Yrotation Zrotation
					JOINT forearm.L
					{
						OFFSET 0.287959 0.000115 0.000957
						CHANNELS 6 Xposition Yposition Zposition Xrotation Yrotation Zrotation
						End Site
						{
							OFFSET 0.238138 -0.004051 -0.001318
						}
					}
				}
			}
			JOINT shoulder.R
			{
				OFFSET 0.000000 0.032811 0.267228
				CHANNELS 6 Xposition Yposition Zposition Yrotation Xrotation Zrotation
				JOINT upper_arm.R
				{
					OFFSET -0.165131 0.000000 0.000000
					CHANNELS 6 Xposition Yposition Zposition Xrotation Yrotation Zrotation
					JOINT forearm.R
					{
						OFFSET -0.291815 0.000115 0.000957
						CHANNELS 6 Xposition Yposition Zposition Xrotation Yrotation Zrotation
						End Site
						{
							OFFSET -0.240676 -0.004095 -0.001318
						}
					}
				}
			}
		}
	}
	JOINT pelvis.L
	{
		OFFSET 0.000000 0.000000 0.000000
		CHANNELS 6 Xposition Yposition Zposition Yrotation Xrotation Zrotation
		End Site
		{
			OFFSET 0.096759 0.000000 0.000000
		}
	}
	JOINT pelvis.R
	{
		OFFSET 0.000000 0.000000 0.000000
		CHANNELS 6 Xposition Yposition Zposition Yrotation Xrotation Zrotation
		End Site
		{
			OFFSET -0.096759 0.000000 0.000000
		}
	}
	JOINT thigh.L
	{
		OFFSET 0.096759 0.000000 0.000000
		CHANNELS 6 Xposition Yposition Zposition Xrotation Yrotation Zrotation
		JOINT shin.L
		{
			OFFSET 0.018463 0.000000 -0.352297
			CHANNELS 6 Xposition Yposition Zposition Xrotation Yrotation Zrotation
			JOINT foot.L
			{
				OFFSET 0.016977 0.000000 -0.323948
				CHANNELS 3 Xrotation Yrotation Zrotation
				End Site
				{
					OFFSET 0.014710 -0.149981 -0.062979
				}
			}
			JOINT heel.02.L
			{
				OFFSET 0.016977 0.000000 -0.323948
				CHANNELS 3 Xrotation Yrotation Zrotation
				End Site
				{
					OFFSET 0.087874 0.034407 -0.061107
				}
			}
		}
	}
	JOINT thigh.R
	{
		OFFSET -0.096759 0.000000 0.000000
		CHANNELS 6 Xposition Yposition Zposition Xrotation Yrotation Zrotation
		JOINT shin.R
		{
			OFFSET -0.018641 0.000000 -0.355699
			CHANNELS 6 Xposition Yposition Zposition Xrotation Yrotation Zrotation
			JOINT foot.R
			{
				OFFSET -0.016869 0.000000 -0.321887
				CHANNELS 3 Xrotation Yrotation Zrotation
				End Site
				{
					OFFSET -0.015231 -0.155299 -0.065213
				}
			}
			JOINT heel.02.R
			{
				OFFSET -0.016869 0.000000 -0.321887
				CHANNELS 3 Xrotation Yrotation Zrotation
				End Site
				{
					OFFSET -0.083768 0.034407 -0.059976
				}
			}
		}
	}
}
MOTION
Frames: 6
Frame Time: 0.041667
0.028687 -0.017325 0.724490 -0.000000 0.000000 11.940996 0.000000 0.000000 0.000000 -2.841447 2.187367 0.169125 9.998656 -0.136937 -1.115159 -0.000000 0.032811 0.267228 15.177087 -0.483459 4.209868 0.000000 0.003472 0.198929 2.893755 0.000002 0.000002 -0.000000 0.032811 0.267228 -0.274896 0.000081 0.033734 0.165131 -0.000000 0.000000 11.889940 75.885499 -15.235464 0.287959 0.000115 0.000957 2.081483 9.470382 -24.357083 -0.000000 0.032811 0.267228 -0.223238 0.000052 0.027361 -0.165131 0.000000 -0.000000 25.707669 -76.155223 32.471706 -0.291815 0.000115 0.000957 1.588450 -8.761352 19.953102 -0.000000 0.000000 0.000000 0.680393 -0.000000 -0.000015 -0.000000 0.000000 0.000000 0.680428 -0.000000 0.000001 0.096752 0.000000 -0.001149 4.942898 5.970483 0.001280 0.018463 -0.000000 -0.352297 -3.294466 0.195964 -0.167080 -2.718800 -3.370424 6.869409 -12.094108 44.744030 38.891340 -0.096752 0.000000 0.001149 4.498801 -1.448685 -0.179107 -0.018641 -0.000000 -0.355699 6.411306 -0.263586 -0.321626 -7.340384 6.761351 -11.931581 -25.053769 -52.173933 -45.609739 
0.028115 -0.017744 0.724615 -0.000000 0.000000 10.000810 0.000000 0.000000 0.000000 -2.775050 2.207794 0.169419 9.999049 -0.118633 -0.966082 0.000000 0.032811 0.267228 15.504902 -1.439409 3.358483 -0.000000 0.003472 0.198929 2.150387 0.000001 0.000002 0.000000 0.032811 0.267228 -0.370450 0.000146 0.045509 0.165131 0.000000 0.000000 16.071684 76.916987 -20.173570 0.287959 0.000115 0.000957 1.604940 7.363700 -24.658361 0.000000 0.032811 0.267228 -0.318872 0.000108 0.039153 -0.165131 -0.000000 -0.000000 19.901387 -76.457035 25.118417 -0.291815 0.000115 0.000957 1.896055 -9.705816 21.448225 -0.000000 -0.000000 0.000000 0.495297 -0.000000 0.000054 -0.000000 -0.000000 0.000000 0.495262 -0.000000 0.000000 0.096756 0.000000 -0.000836 5.009178 6.075007 -0.003299 0.018463 -0.000000 -0.352297 -3.266157 0.010183 -0.170930 -2.857790 -3.988045 8.167533 -12.926297 45.494404 39.808665 -0.096756 0.000000 0.000836 4.572501 -1.668726 -0.173267 -0.018641 -0.000000 -0.355699 5.261362 -0.050316 -0.273624 -6.427670 6.926395 -12.686929 -25.467967 -52.486828 -46.769017 
0.028006 -0.018548 0.725105 -0.000000 0.000000 8.203628 0.000000 0.000000 0.000000 -2.971523 2.166059 0.169949 9.998841 -0.129158 -1.051920 -0.000000 0.032811 0.267228 16.528795 -2.123285 3.301785 -0.000000 0.003472 0.198929 1.108727 0.000000 0.000000 -0.000000 0.032812 0.267228 -0.259250 0.000071 0.031891 0.165131 -0.000000 -0.000000 18.672151 77.452535 -23.184580 0.287959 0.000115 0.000957 1.225933 5.825626 -24.367205 -0.000000 0.032812 0.267228 -0.207631 0.000046 0.025538 -0.165131 0.000000 -0.000000 14.879482 -77.194894 18.599841 -0.291815 0.000115 0.000957 2.046268 -9.809334 22.978621 -0.000000 0.000000 0.000000 0.180321 -0.000000 0.000043 -0.000000 0.000000 0.000000 0.180321 -0.000000 0.000000 0.096759 0.000000 -0.000304 4.773566 6.162452 -0.006810 0.018463 0.000000 -0.352297 -2.345221 0.003270 -0.122859 -3.669593 -4.705684 9.376287 -13.909598 46.115388 40.002420 -0.096759 -0.000000 0.000304 4.552076 -1.909292 -0.162939 -0.018641 -0.000000 -0.355699 4.449817 0.264603 -0.243573 -5.788862 7.106628 -13.361005 -26.144846 -52.920777 -48.208332 
0.028446 -0.019161 0.726409 -0.000000 0.000000 6.564448 0.000000 0.000000 0.000000 -3.280892 2.036252 0.165296 9.997734 -0.177330 -1.444518 -0.000000 0.032811 0.267228 17.829285 -2.558061 3.803997 -0.000000 0.003472 0.198929 -0.058612 -0.000001 -0.000002 -0.000000 0.032811 0.267228 0.090916 0.000008 -0.011203 0.165131 -0.000000 0.000000 19.013558 77.373769 -23.635537 0.287959 0.000115 0.000957 1.268513 5.964926 -24.568856 -0.000000 0.032811 0.267228 0.142499 0.000022 -0.017512 -0.165131 -0.000000 0.000000 12.015644 -78.270041 14.764760 -0.291815 0.000115 0.000957 1.871670 -8.940056 23.227049 0.000000 0.000000 0.000000 -0.156638 -0.000000 -0.000015 0.000000 0.000000 0.000000 -0.156638 -0.000000 0.000000 0.096759 0.000000 0.000265 4.361537 6.363934 -0.013939 0.018463 -0.000000 -0.352297 -1.006445 -0.061940 -0.053290 -4.705202 -5.462372 10.515134 -14.835808 46.589813 39.781979 -0.096759 0.000000 -0.000264 4.452271 -2.089667 -0.152356 -0.018641 -0.000000 -0.355699 3.909341 0.472327 -0.221031 -5.218282 7.279326 -14.000591 -26.742706 -53.287196 -49.493419 
0.028904 -0.019267 0.728274 -0.000000 0.000000 5.015309 0.000000 0.000000 0.000000 -3.493505 1.841484 0.152922 9.995386 -0.254468 -2.072994 -0.000000 0.032811 0.267228 18.779177 -2.802846 4.356677 0.000000 0.003472 0.198929 -0.936811 0.000000 -0.000001 -0.000000 0.032811 0.267228 0.580187 0.000360 -0.071232 0.165131 -0.000000 0.000000 18.014086 77.147082 -22.494852 0.287959 0.000115 0.000957 1.546977 6.869613 -25.687846 -0.000000 0.032811 0.267228 0.631803 0.000427 -0.077599 -0.165131 -0.000000 -0.000000 12.121627 -79.254209 14.640861 -0.291815 0.000115 0.000957 1.538708 -7.832727 21.950628 0.000000 0.000000 0.000000 -0.351750 -0.000000 0.000024 0.000000 0.000000 0.000000 -0.351785 -0.000000 0.000000 0.096757 0.000000 0.000594 3.961193 6.713774 -0.024836 0.018463 -0.000000 -0.352297 0.181317 -0.468352 0.010242 -5.580334 -6.140618 11.509615 -15.799308 47.131543 39.776030 -0.096757 -0.000000 -0.000594 4.286790 -2.198529 -0.142615 -0.018641 0.000000 -0.355699 3.556452 0.592598 -0.204786 -4.759482 7.367150 -14.420314 -26.688110 -53.324998 -50.025993 
0.028803 -0.018728 0.730044 -0.000000 0.000000 3.521014 -0.000000 0.000000 0.000000 -3.506109 1.568872 0.130456 9.992320 -0.327944 -2.671892 -0.000000 0.032811 0.267228 19.041533 -2.789296 4.441070 -0.000000 0.003472 0.198929 -1.238792 0.000000 -0.000001 -0.000000 0.032811 0.267228 1.052179 0.001186 -0.129216 0.165131 0.000000 -0.000000 17.524831 77.241387 -21.854802 0.287959 0.000115 0.000957 1.639439 6.972410 -26.826792 0.000000 0.032811 0.267228 1.103796 0.001305 -0.135575 -0.165131 0.000000 0.000000 14.320401 -79.663618 17.154777 -0.291815 0.000115 0.000957 1.350700 -7.485557 20.122045 -0.000000 -0.000000 0.000000 -0.394740 -0.000000 -0.000063 -0.000000 -0.000000 0.000000 -0.394740 -0.000000 0.000000 0.096757 0.000000 0.000667 3.602385 7.113965 -0.035262 0.018463 -0.000000 -0.352297 1.079871 -1.220614 0.068060 -6.130020 -6.641165 12.260815 -16.947009 47.889243 40.346921 -0.096757 0.000000 -0.000667 4.078001 -2.205324 -0.135420 -0.018641 0.000000 -0.355699 3.301355 0.621741 -0.190926 -4.655632 7.349810 -14.439863 -25.704946 -52.919643 -49.615761 
